<svg xmlns="http://www.w3.org/2000/svg" viewBox="0 0 69.89 47.7">
  <path d="M68.59,0H1.3A1.3,1.3,0,0,0,0,1.3H0V46.4a1.3,1.3,0,0,0,1.3,1.3H68.59a1.3,1.3,0,0,0,1.3-1.3h0V1.3A1.3,1.3,0,0,0,68.59,0h0M41.23.76a5.2,5.2,0,0,1,2.36.47c.95.61.8,2.55-.14,4.66L26.38,40h0S25,42.67,23.83,42.67c-.93,0-1.78-1.29-2.21-2.06L4.17,5.93C3.35,4.11,3,2,3.9,1.42S6.45.78,8.14.76Zm0,23.79a8.64,8.64,0,0,1-3.76-.65c-1-.61-.62-2.47.27-4.54h0L45.29,4.21a1.43,1.43,0,0,1,.56-.35L54.48,21l-.64-1.27c.85,1.93,1,3.58.06,4.19a8.4,8.4,0,0,1-3.67.63ZM28.67,47a5.14,5.14,0,0,1-2.36-.47c-1-.61-.28-3.57.54-5.38l5.33-10.68-.06.15c2.15-4.27,3.4-4.18,4.43-4.59a17.26,17.26,0,0,1,4.52-.54H50.5A17.26,17.26,0,0,1,55,26a5,5,0,0,1,3.22,2.48l6.68,13.28h0c.81,2.07,1.18,3.95.23,4.56a8.49,8.49,0,0,1-3.72.65ZM69.13,1.3V37.65c0,1.94,0,4.28-.37,4.43-.7.35-.83-.4-2-2.37h0L49.86,6.11c-.81-2-1.28-4.08-.33-4.69s2.6-.64,4.32-.66H68.59a.54.54,0,0,1,.54.54M.76,46.4V12.68h0c0-.46,0-1,0-1.48V10c0-1.18.08-2.17.38-2.32.63-.32,1-.1,1.87,1.62L19.32,41.74c.74,2,1.7,4.08.74,4.69a4.44,4.44,0,0,1-2.29.52H1.3a.55.55,0,0,1-.54-.55" />
</svg>
