<svg xmlns="http://www.w3.org/2000/svg" viewBox="0 0 660.53 39.58">
  <path d="M302.94,29.61c.18-.5.39-1,.55-1.51q3.09-10.2,6.15-20.39c.61-2,.43-2.37-1.44-3.27a8,8,0,0,1-1.31-.73,1.26,1.26,0,0,1-.35-1.66,1.6,1.6,0,0,1,1.1-.81c2-.08,4-.05,6,0,1.07,0,1.34.84,1.57,1.68.69,2.42,1.37,4.84,2.06,7.26q2.58,9,5.16,18.06A14.15,14.15,0,0,0,323,29.7h.37c.18-.45.4-.88.53-1.33Q326.8,18,329.71,7.54c.53-1.92.34-2.25-1.47-3.15-.25-.12-.5-.25-.76-.36a1.46,1.46,0,0,1-.86-1.79c.16-.83.77-1,1.5-1h8.57c.67,0,1.25.19,1.42.91A1.59,1.59,0,0,1,337.59,4a5.59,5.59,0,0,1-1,.59c-1.86.7-2.69,2.17-3.21,4-2.52,8.93-5.1,17.84-7.67,26.76-.2.69-.41,1.39-.63,2.08a1.48,1.48,0,0,1-1.5,1.11h-.17c-2.69.19-2.89.07-3.63-2.53q-3.24-11.37-6.46-22.75c-.15-.52-.34-1-.54-1.63-.8.39-.81,1-1,1.6l-6.87,23.15a5.17,5.17,0,0,1-.44,1.27,1.77,1.77,0,0,1-1,.8,10,10,0,0,1-2.68,0c-.91-.12-1.13-1-1.36-1.73l-2.28-7.92c-2-6.74-4.06-13.49-6-20.25a6,6,0,0,0-3.23-4,4.4,4.4,0,0,1-1-.65,1.55,1.55,0,0,1-.45-1.82,1.25,1.25,0,0,1,1.34-.81h9.4a1.19,1.19,0,0,1,1.32.81,1.56,1.56,0,0,1-.46,1.82,6.32,6.32,0,0,1-1.16.66c-1.38.7-1.56,1-1.17,2.51s.93,3.23,1.4,4.84L302,28.28c.14.47.33.91.5,1.37Z" />
  <path d="M190.15,21.05c.36.68.56,1.13.81,1.56,1.64,2.8,3.34,5.56,4.91,8.4a8.28,8.28,0,0,0,4.92,4,11,11,0,0,1,1.57.59c.74.34.79,1,.71,1.72a1.16,1.16,0,0,1-1.21,1.08H195.8a2.77,2.77,0,0,1-2.29-1.75c-1.74-3.19-3.47-6.39-5.25-9.56a28.07,28.07,0,0,0-2.33-3.67,6.82,6.82,0,0,0-6.63-2.5,7.38,7.38,0,0,0-.16,1.24V32.23c0,1.83.18,2,1.89,2.7a9,9,0,0,1,1.25.49,1.65,1.65,0,0,1,.84,2,1.32,1.32,0,0,1-1.5,1h-9.91c-.74,0-1.32-.21-1.52-1a1.67,1.67,0,0,1,1-2.07,14.91,14.91,0,0,1,1.57-.6,2,2,0,0,0,1.42-2V8c0-2.34-.07-2.43-2.27-3.28l-.62-.25a1.57,1.57,0,0,1-1.09-1.84c.12-.9.74-1.16,1.53-1.26a60.79,60.79,0,0,1,13-.53,33.47,33.47,0,0,1,5.43,1,11.52,11.52,0,0,1,5,2.64,9.77,9.77,0,0,1,3,10.54c-.8,3-3.07,4.56-5.92,5.42Zm-11-3.82a33.48,33.48,0,0,0,9.42.65A4.71,4.71,0,0,0,193,14.56a7.14,7.14,0,0,0-1.61-7.46c-2.78-2.86-6.38-3.24-10.08-3-1.86.11-2.27.69-2.28,2.59v9C179.05,16.19,179.15,16.68,179.15,17.23Z" />
  <path d="M604,21.13V32.85a1.87,1.87,0,0,0,1.23,1.83c.56.24,1.16.4,1.72.66a1.6,1.6,0,0,1,1.06,2h0c-.15.92-.79,1.12-1.59,1.11h-9.74c-.82,0-1.43-.22-1.62-1.11a1.69,1.69,0,0,1,.91-2,3.82,3.82,0,0,1,.46-.21c2.59-1.07,2.59-1.07,2.59-3.9V8c0-2.29,0-2.36-2.17-3.17-.32-.11-.63-.24-.94-.38A1.51,1.51,0,0,1,595,2.79a1.34,1.34,0,0,1,1.31-1.29c1.27-.16,2.55-.35,3.83-.44a49.66,49.66,0,0,1,12.06.16,15.85,15.85,0,0,1,7.66,3.17,10.09,10.09,0,0,1,3.22,10.76,8,8,0,0,1-5.68,5.24c-.68.22-1.37.41-2.28.68.28.6.46,1.1.73,1.55,1.66,2.85,3.37,5.67,5,8.55a8,8,0,0,0,4.7,3.83c.53.17,1.06.34,1.58.55a1.5,1.5,0,0,1,.9,1.79,1.24,1.24,0,0,1-1.31,1.14H621a3,3,0,0,1-2.55-1.88c-1.72-3.15-3.43-6.29-5.17-9.41a32.12,32.12,0,0,0-2.28-3.6,7.31,7.31,0,0,0-5.83-2.85,2.47,2.47,0,0,0-.66.07C604.41,20.83,604.33,20.93,604,21.13Zm.12-3.91a34.32,34.32,0,0,0,9.32.68A4.86,4.86,0,0,0,618,14.55a7.07,7.07,0,0,0-1.65-7.46c-2.78-2.86-6.39-3.24-10.09-3-1.84.11-2.28.74-2.29,2.61v9.06C604,16.17,604.12,16.61,604.12,17.22Z" />
  <path d="M273.47,21.1c2.48,4.09,4.72,8,7.17,11.68a7.92,7.92,0,0,0,2.86,1.95,18.61,18.61,0,0,0,2.19.83,1.48,1.48,0,0,1,.85,1.81c-.11.83-.66,1.09-1.42,1.09h-5.55A2.91,2.91,0,0,1,277,36.68c-1.79-3.3-3.58-6.59-5.41-9.86a23.41,23.41,0,0,0-2.17-3.38c-1.66-2.07-3.93-2.76-6.61-2.68a7.45,7.45,0,0,0-.2,1.24V32.41c0,1.58.24,1.88,1.75,2.47a14,14,0,0,1,1.4.55,1.62,1.62,0,0,1,.86,2,1.32,1.32,0,0,1-1.48,1.06h-9.91a1.39,1.39,0,0,1-1.59-1.16h0a1.67,1.67,0,0,1,1-1.92c.4-.19.84-.32,1.25-.48,1.49-.58,1.72-.89,1.73-2.48V7.6c0-1.81-.18-2-1.89-2.7-.36-.14-.74-.26-1.1-.41a1.57,1.57,0,0,1-1-1.76A1.36,1.36,0,0,1,255,1.48c1.33-.15,2.66-.38,4-.46,4.47-.26,8.94-.56,13.37.5a14.44,14.44,0,0,1,6,2.79,9.83,9.83,0,0,1,3.56,9.9c-.57,3.23-2.77,5.14-5.8,6.14Zm-10.92-3.91a31.91,31.91,0,0,0,9.84.64,4.67,4.67,0,0,0,4.16-3.2A7,7,0,0,0,274.86,7c-3-3-6.81-3.35-10.76-2.83-1.08.14-1.5.75-1.53,1.88v4.19Z" />
  <path d="M448.07,19.38c1.79,0,3.58-.05,5.37,0,1.35.06,1.87.73,1.62,2a2.26,2.26,0,0,1-.56,1,1.83,1.83,0,0,1-.73.38c-3.74,1.34-3,2.1-3,4.73v9.06c0,.81,0,1.61-1,1.9a2,2,0,0,1-2.3-1c-.16-.22-.28-.48-.44-.71a1,1,0,0,0-1.36-.4h-.07c-.73.4-1.49.77-2.25,1.12a17.45,17.45,0,0,1-23.14-8.57,17.22,17.22,0,0,1-1.36-4.43,25.3,25.3,0,0,1,.65-12.1,16.64,16.64,0,0,1,19-11.3,13.37,13.37,0,0,0,6.5.14c1.38-.41,2,0,2.54,1.26,1.22,2.64,2.4,5.3,3.56,8a1.52,1.52,0,0,1-.44,2.1,2.48,2.48,0,0,1-.44.2,1.26,1.26,0,0,1-1.54-.22c-.43-.44-.79-1-1.22-1.38a43.61,43.61,0,0,0-4.72-4.5c-5.1-3.75-14.54-3.48-18,5.39-2,5-1.46,14.44,3.71,19.07,4.07,3.64,8.82,4.42,13.94,2.89a4.92,4.92,0,0,0,3.71-4.85V26a2.39,2.39,0,0,0-1.83-2.5,20.07,20.07,0,0,1-2-.76,1.68,1.68,0,0,1-1.24-2,.11.11,0,0,1,0-.08c.14-.81.58-1.17,1.74-1.2,1.79-.05,3.59,0,5.38,0Z" />
  <path d="M146.66,39.05c-10.09.12-17.4-8-18-17.28-.29-4.77.48-9.27,3.18-13.29A16.73,16.73,0,0,1,144.64.84,18.5,18.5,0,0,1,154,2.15a16.69,16.69,0,0,1,9.37,9.79,20.68,20.68,0,0,1-.43,16.79C159.74,35.48,154.2,38.89,146.66,39.05Zm-12.88-21a19.86,19.86,0,0,0,1.48,7.69c1.91,4.61,5,7.93,10.11,8.94,5.89,1.18,12.31-1.27,13.95-9a18.94,18.94,0,0,0-2-13.49c-2.76-4.94-6.91-7.65-12.78-7.26a10.61,10.61,0,0,0-9.33,6.14,14.94,14.94,0,0,0-1.43,6.9Z" />
  <path d="M569.15,18.44c0,.44-.09.93-.09,1.42V32.11c0,2.16.73,3,2.88,3a58.14,58.14,0,0,0,7.69-.45,11.09,11.09,0,0,0,7.36-4.6c.37-.49.72-1,1.12-1.46a1.51,1.51,0,0,1,2.08-.39,1.35,1.35,0,0,1,.87,1.7v0a1.43,1.43,0,0,1-.13.28c-.88,2.65-1.79,5.3-2.76,7.92-.48,1.3-1.46,1.83-2.66,1.18-1.7-.91-3.46-.8-5.24-.8H562c-1.55,0-2.28-.95-1.69-2.22a1.87,1.87,0,0,1,1.07-.94c2.88-.89,2.8-1.22,2.81-4.29V7a2.1,2.1,0,0,0-1.64-2.24l-1-.34c-1.2-.48-1.59-1.09-1.39-2.13s.53-1.12,1.93-1.12h15.62c1.89,0,3.77.17,5.55-.88,1-.6,1.91-.14,2.47,1,1.1,2.2,2.13,4.43,3.22,6.64a1.26,1.26,0,0,1-.36,1.74h0a1.42,1.42,0,0,1-2,0h0c-.38-.34-.73-.69-1.07-1.06a12,12,0,0,0-7.93-4c-2-.17-4-.25-6-.22S569.06,5.15,569,7v6.37c0,1.21.19,1.42,1.35,1.41,2.79,0,5.59.24,8.35-.53,1.42-.39,1.76-.19,2.41,1.09q1.5,2.91,2.93,5.85c.49,1,.39,1.35-.33,1.87a1.38,1.38,0,0,1-2-.08l-.12-.15c-.78-.75-1.31-1.38-2-2-2.84-2.72-6.35-3-10-2.75A1.72,1.72,0,0,0,569.15,18.44Z" />
  <path d="M390.78,39.05c-1.56-.22-3.34-.4-5.09-.74a7.46,7.46,0,0,0-4,.23c-2.19.73-2.84.43-3.85-1.66-1.26-2.62-2.53-5.23-3.76-7.87-.65-1.38-.34-2.16,1-2.67.93-.36,1.46-.19,2.15.72s1.47,2.13,2.33,3.07c3.26,3.55,7.17,5.68,12.15,5.27a10.33,10.33,0,0,0,2-.34,5.4,5.4,0,0,0,4.12-4.2,6,6,0,0,0-1.76-6,12.63,12.63,0,0,0-4.5-2.54c-2.32-.81-4.67-1.57-7-2.36a25.33,25.33,0,0,1-6-3c-4.72-3.24-4.75-11.31.88-14.62A13.84,13.84,0,0,1,387.86.66c1,.09,2.1.39,3.16.41a15.45,15.45,0,0,0,3.46-.28c1.8-.39,2.17-.32,2.94,1.26,1.17,2.41,2.33,4.84,3.47,7.27.55,1.16.47,1.52-.4,2.15s-1.46.55-2.34-.34c-1.5-1.51-2.92-3.1-4.5-4.52a10.15,10.15,0,0,0-8.89-2.49,5,5,0,0,0-4.61,5.11,4.18,4.18,0,0,0,2.08,3.8,37,37,0,0,0,5.12,2.44c2.35.91,4.79,1.56,7.14,2.45a24.58,24.58,0,0,1,4.05,2c3.52,2.1,5.3,5.12,4.59,10.33-.62,4.56-3.89,7.59-8.79,8.42A25.15,25.15,0,0,1,390.78,39.05Z" />
  <path d="M231.91,27.81H226.2a1.53,1.53,0,0,0-1.74,1.2c-.38,1.23-.9,2.41-1.29,3.64a1.71,1.71,0,0,0,.74,2.3l.17.08c.48.27,1,.45,1.52.69a1.41,1.41,0,0,1,.84,1.65,1.31,1.31,0,0,1-1.46,1.1h-9.07a1.26,1.26,0,0,1-1.43-1.07h0c-.12-.79,0-1.54.87-1.77,2.85-.79,3.92-3,4.84-5.53,2.61-7.08,5.35-14.11,8-21.16l.17-.48c.79-2.15.53-2.75-1.6-3.54-.37-.14-.75-.25-1.11-.41-1-.45-1.31-.88-1.17-1.76a1.57,1.57,0,0,1,1.62-1.52h6.07c1.09,0,1.54.72,1.89,1.61,1.35,3.44,2.72,6.86,4.08,10.29,2.4,6,4.82,12,7.16,18.09.75,1.92,1.79,3.46,3.82,4.16a1.62,1.62,0,0,1,1.24,1.43c.09,1-.34,1.68-1.36,1.69h-9.91a1.22,1.22,0,0,1-1.29-1.08,1.41,1.41,0,0,1,.71-1.71c.49-.26,1-.43,1.54-.66a1.28,1.28,0,0,0,.87-1.59h0a1.34,1.34,0,0,0-.07-.18c-.54-1.52-1.13-3-1.68-4.56-.29-.79-.92-.87-1.63-.87Zm-.1-17.89c-.75.88-5,12.06-5.48,14.36,1.15.57,2.4.25,3.6.3s2.57.06,3.86,0,2.43.31,3.56-.33c-.36-2-4.79-13.4-5.54-14.33Z" />
  <path d="M473.84,27.81h-5.71A1.54,1.54,0,0,0,466.4,29c-.37,1.17-.86,2.3-1.24,3.47-.44,1.35-.2,2,1,2.61.49.26,1,.43,1.52.7a1.36,1.36,0,0,1,.67,1.58,1.23,1.23,0,0,1-1.29,1.07h-9.41a1.12,1.12,0,0,1-1.21-.94c-.12-.67-.19-1.38.56-1.78a9,9,0,0,1,1.22-.57,5.35,5.35,0,0,0,3.22-3.41c1.77-4.71,3.58-9.4,5.37-14.1q1.77-4.62,3.52-9.25c.79-2.12.5-2.73-1.64-3.53-.41-.16-.84-.29-1.25-.47a1.44,1.44,0,0,1-1-1.71c.17-.91.63-1.46,1.55-1.48h6.38c.91,0,1.32.67,1.63,1.45q2,5.07,4,10.13c2.43,6.13,4.9,12.25,7.28,18.4a6.36,6.36,0,0,0,3.83,4.15,1.6,1.6,0,0,1,1.23,1.44,1.36,1.36,0,0,1-1,1.63h-.4c-.95.06-1.9,0-2.86,0h-6.55c-1.2,0-1.6-.29-1.78-1.11s.16-1.45,1.19-1.91c2.31-1,2.31-1,1.41-3.48-.29-.79-.57-1.58-.87-2.36-.67-1.79-.67-1.79-2.67-1.79Zm-.32-18.1c-1.86,4.87-3.64,9.64-5.34,14.44,1.42.57,9.57.61,11,.12C479.18,22.67,474.54,10.82,473.52,9.71Z" />
  <path d="M353.25,27.81H347.7a1.7,1.7,0,0,0-2,1.33c-.34,1.18-.85,2.31-1.23,3.48a1.74,1.74,0,0,0,.72,2.35,1.39,1.39,0,0,0,.28.12c.44.25.92.41,1.38.62a1.38,1.38,0,0,1,.87,1.63,1.28,1.28,0,0,1-1.39,1.14h-9.08c-.75,0-1.33-.25-1.46-1.07s0-1.56.83-1.8c2.92-.8,4-3.11,4.91-5.67,2.64-7.13,5.39-14.22,8.1-21.32.08-.21.17-.41.24-.62.53-1.63.2-2.34-1.43-3-.52-.21-1.06-.35-1.58-.57a1.45,1.45,0,0,1-1.05-1.68,1.58,1.58,0,0,1,1.61-1.55h6.06c1.09,0,1.55.69,1.9,1.59,1.84,4.68,3.71,9.35,5.57,14s3.88,9.65,5.74,14.5a6.21,6.21,0,0,0,3.74,4,1.62,1.62,0,0,1,1.28,1.57c0,1-.39,1.54-1.34,1.56h-9.91a1.27,1.27,0,0,1-1.33-1,1.41,1.41,0,0,1,.69-1.72c.44-.24.93-.38,1.38-.6,1.14-.54,1.3-.89.88-2.12s-1-2.61-1.44-3.94a1.54,1.54,0,0,0-1.72-1.22C357.05,27.84,355.15,27.81,353.25,27.81Zm-5.75-3.68c1.29.53,5.77.71,10,.45a8.18,8.18,0,0,0,1.19-.27c-.53-2.52-4.86-13.55-5.79-14.59C351,14.53,349.3,19.29,347.5,24.13Z" />
  <path d="M57.5,19.47a18.69,18.69,0,0,1,4-12.67C65.5,1.92,70.78.26,76.93,1a10.86,10.86,0,0,1,1.49.28,8.15,8.15,0,0,0,4.46-.07C84.4.75,85,1,85.61,2.35c1.27,2.74,2.48,5.51,3.67,8.28.44,1,.26,1.5-.55,2a1.47,1.47,0,0,1-2.07-.18l-.13-.18c-.61-.65-1.14-1.38-1.74-2-.83-.91-1.64-1.84-2.54-2.68A11.09,11.09,0,0,0,70.53,5.05c-4.32,1.42-6.76,4.65-7.61,9a18.56,18.56,0,0,0,1.84,12.68A13.49,13.49,0,0,0,76,34.05a12.7,12.7,0,0,0,10.63-3.51,2.73,2.73,0,0,1,.25-.23c1.07-.9,1.81-1,2.54-.44s.74,1.51.19,2.63a9.28,9.28,0,0,1-3.37,3.66A19.83,19.83,0,0,1,63.8,34.81c-4-3.45-5.81-8-6.24-13.13A14.91,14.91,0,0,1,57.5,19.47Z" />
  <path d="M18.91,31c.22-.5.45-1,.64-1.5L27.28,8.05c.07-.21.16-.42.23-.63.51-1.63.3-2.12-1.29-2.92-.4-.2-.81-.38-1.2-.6a1.38,1.38,0,0,1-.65-1.73,1.26,1.26,0,0,1,1.39-1h8.9a1.21,1.21,0,0,1,1.38,1A1.56,1.56,0,0,1,35.51,4a2.34,2.34,0,0,1-.43.26C32.81,5.06,31.81,6.87,31,9c-3.2,8.83-6.5,17.62-9.76,26.42-.2.53-.42,1-.59,1.57a1.91,1.91,0,0,1-2.13,1.5,3.84,3.84,0,0,0-.83,0A2,2,0,0,1,15.44,37c-.69-2-1.46-3.87-2.18-5.81C10.52,23.77,7.75,16.39,5.06,9A7.59,7.59,0,0,0,1.23,4.35a4.1,4.1,0,0,1-.71-.46A1.59,1.59,0,0,1,.15,2.05a1.22,1.22,0,0,1,1.31-.84H11a1.3,1.3,0,0,1,1.44,1.13,1.51,1.51,0,0,1-.75,1.72c-.29.17-.6.29-.9.44-1.71.8-1.8,1-1.13,2.83.49,1.36,1,2.72,1.51,4.09l6.57,17.77c.23.61.51,1.21.77,1.81Z" />
  <path d="M111.34,19.79V31.88c0,2.19.18,2.41,2.31,3,.43.12.86.23,1.29.37a1.55,1.55,0,0,1,1.24,1.81h0v.07c-.1.91-.5,1.27-1.62,1.27H103.29c-1.08,0-1.54-.4-1.65-1.27a1.59,1.59,0,0,1,1.1-1.82c.73-.27,1.5-.46,2.25-.67a1.8,1.8,0,0,0,1.43-1.83V8a14.1,14.1,0,0,0-.12-1.84,2,2,0,0,0-2-2h-.24a6.2,6.2,0,0,0-5.14,2.41c-1.28,1.62-2.37,3.39-3.52,5.1a1.6,1.6,0,0,1-2.1.84,1.08,1.08,0,0,1-.3-.16,1,1,0,0,1-.69-1.2A6.39,6.39,0,0,1,92.57,10c.86-2.78,1.72-5.56,2.6-8.33C95.7,0,96.46-.35,98.08.39a8.13,8.13,0,0,0,3.57.73h14.79a6.66,6.66,0,0,0,3.07-.68c1.71-.86,2.56-.47,3.13,1.37.89,2.82,1.76,5.66,2.61,8.5.4,1.33.11,1.88-1,2.2a1.35,1.35,0,0,1-1.72-.63,29.14,29.14,0,0,0-2-3.13,26.42,26.42,0,0,0-3.16-3.44,5.27,5.27,0,0,0-3.77-1.18,2,2,0,0,0-2.21,1.77h0V6a9.34,9.34,0,0,0-.13,1.83C111.33,11.85,111.34,15.82,111.34,19.79Z" />
  <path d="M644.15,19.7c.43-.61.74-1,1-1.41,2.08-3.45,4.14-6.9,6.21-10.36a7.52,7.52,0,0,0,.56-1,1.61,1.61,0,0,0-.71-2.14h0a17.48,17.48,0,0,0-1.7-.79,1.44,1.44,0,0,1-.78-1.83,1.21,1.21,0,0,1,1.38-1h9A1.16,1.16,0,0,1,660.4,2a1.63,1.63,0,0,1-.4,1.84,5.79,5.79,0,0,1-1.16.66,5.67,5.67,0,0,0-2.72,2.4C653,12,649.91,17.14,646.88,22.29a6.49,6.49,0,0,0-.83,2.85c-.11,2.34-.06,4.7,0,7,0,1.83.33,2.17,2.11,2.7.48.14,1,.25,1.45.42A1.53,1.53,0,0,1,650.83,37v.13c-.13.87-.53,1.22-1.68,1.22H638.21c-1.19,0-1.54-.31-1.65-1.22a1.52,1.52,0,0,1,1-1.89h.16c.63-.22,1.28-.38,1.93-.56a1.79,1.79,0,0,0,1.5-1.78c0-2.79,0-5.59-.07-8.38a5.36,5.36,0,0,0-.89-2.31c-2.83-4.76-5.72-9.48-8.56-14.23a8.85,8.85,0,0,0-3.77-3.7c-.3-.15-.7-.31-.8-.57A3.73,3.73,0,0,1,626.74,2c.06-.6.6-.89,1.23-.89h10.24a1.2,1.2,0,0,1,1.27,1.11,1.39,1.39,0,0,1-.62,1.6,8.18,8.18,0,0,1-.92.39c-1.9.81-2.07,1.31-1,3.17.63,1.12,1.29,2.23,1.93,3.34,1.43,2.47,2.85,4.94,4.29,7.4A8.37,8.37,0,0,0,644.15,19.7Z" />
  <path d="M502,1.15h4.86c.79,0,1.46.17,1.65,1.08a1.64,1.64,0,0,1-1,2c-.4.19-.84.32-1.25.49-1.49.58-1.73.91-1.75,2.47v25c0,2.07.51,2.73,2.59,2.92a18.48,18.48,0,0,0,8.56-1.06,11.14,11.14,0,0,0,4.54-3.61c.53-.66,1-1.37,1.5-2a1.38,1.38,0,0,1,1.89-.52h0l.1.07a1.34,1.34,0,0,1,.93,1.66v0a1.17,1.17,0,0,1-.09.24c-.92,2.75-1.88,5.49-2.9,8.21-.5,1.31-1.4,1.76-2.69,1.11a11,11,0,0,0-5.23-.78H497.27c-1.5,0-2.26-1.07-1.63-2.26a1.88,1.88,0,0,1,1.12-.91c2.5-.46,2.83-2.11,2.8-4.31-.1-7.44,0-14.88,0-22.31V7.48c0-1.88-.26-2.2-2-2.85a11.3,11.3,0,0,1-1.1-.42,1.65,1.65,0,0,1-1-1.92,1.41,1.41,0,0,1,1.61-1.15Z" />
  <path d="M534.29,1.15h4.86c.79,0,1.45.18,1.63,1.1a1.64,1.64,0,0,1-1,2c-.4.19-.84.32-1.25.48-1.47.59-1.72.92-1.73,2.49v25c0,2,.51,2.72,2.61,2.9A18.48,18.48,0,0,0,548,34.05a11.49,11.49,0,0,0,4.74-3.88c.41-.54.77-1.1,1.19-1.63.73-.91,1.21-1,2.16-.55s1.15,1,.77,2.09c-.89,2.64-1.82,5.28-2.79,7.9-.54,1.43-1.41,1.9-2.77,1.24a11,11,0,0,0-5.07-.79h-17a1.27,1.27,0,0,1-1.38-1,1.57,1.57,0,0,1,.63-1.92,7.07,7.07,0,0,1,1.24-.52c1.93-.72,2.09-.94,2.11-3.08s0-4.47,0-6.71V7.76c0-2.33-.1-2.44-2.3-3.28a9.53,9.53,0,0,1-.93-.38,1.61,1.61,0,0,1-.78-1.87,1.31,1.31,0,0,1,1.45-1.12h5Z" />
  <path d="M45.73,38.46H40.86c-.8,0-1.43-.18-1.62-1.08a1.7,1.7,0,0,1,1-2.05,7.35,7.35,0,0,1,.91-.28c1.78-.66,2.05-1,2.06-3V7.56c0-1.93-.27-2.24-2.1-2.94A6.19,6.19,0,0,1,39.75,4a1.57,1.57,0,0,1-.54-1.8,1.25,1.25,0,0,1,1.37-1H50.85a1.14,1.14,0,0,1,1.3.85c.17.72.24,1.51-.51,2a10.31,10.31,0,0,1-1.84.79,2.24,2.24,0,0,0-1.66,2.4V32.4a2.29,2.29,0,0,0,1.77,2.5,7.08,7.08,0,0,1,1.41.54,1.75,1.75,0,0,1,.87,2.13c-.23.81-.85.94-1.57.94C49,38.45,47.35,38.46,45.73,38.46Z" />
</svg>
