<svg xmlns="http://www.w3.org/2000/svg" viewBox="0 0 200 200">
    <style>
        path { fill: #282829; }
        @media (prefers-color-scheme: dark) {
            path { fill: #F8F8F3; }
        }
    </style>
    <path d="M195.6,32.1H4.2c-2,0-3.7,1.7-3.7,3.7v128.3c0,2,1.7,3.7,3.7,3.7h191.4c2,0,3.7-1.7,3.7-3.7l0,0V35.8
	C199.4,33.7,197.7,32.1,195.6,32.1L195.6,32.1z M117.6,101.9c-4.3-0.1-8.5-0.5-10.6-1.9c-2.7-1.7-1.7-7,0.8-12.9l-0.1,0.2L129.3,44
	c0.4-0.5,1-0.8,1.6-1L155,90.9l-1.4-2.7c2.4,5.5,2.9,10.2,0.2,11.9c-2.1,1.3-6.2,1.7-10.4,1.8L117.6,101.9z M117.9,34.2
	c2.7,0.1,5.1,0.4,6.6,1.4c2.7,1.7,2.3,7.2-0.4,13.2l-48.6,97.3l0,0c0,0-3.9,7.5-7.3,7.5c-2.7,0-5.1-3.8-6.3-5.9L12.1,48.5l0.3,0.5
	c-2.3-5.2-3.5-11.1-0.8-12.8c2.3-1.5,7.3-1.8,12.1-1.9L117.9,34.2z M81.9,165.6c-2.7-0.1-5.1-0.4-6.6-1.3
	c-2.7-1.7-0.8-10.1,1.5-15.3l0,0l15.2-30.4l-0.2,0.4c6.1-12.2,9.7-11.9,12.6-13.1c2.5-1,8.1-1.4,13.1-1.5H144c5,0.1,10.5,0.5,13,1.5
	s5.1,0.9,9.1,7l19,37.8c2.3,5.9,3.4,11.3,0.6,13c-2.1,1.3-6.2,1.7-10.5,1.9L81.9,165.6z M197.1,35.8v103.3c0,5.5-0.1,12.3-1.1,12.8
	c-2,1-2.4-1.1-5.7-6.8l0.1,0.1l-48.2-95.9v0.1c-2.3-5.6-3.7-11.6-0.9-13.3c2.4-1.5,7.4-1.8,12.2-1.9h42c0.8-0.1,1.6,0.6,1.6,1.4
	c0,0,0,0,0,0C197.1,35.7,197.1,35.7,197.1,35.8L197.1,35.8z M4.1,165.6c-0.9,0-1.5-0.7-1.5-1.5V68.1l0,0v-7.8c0-3.3,0.3-5.9,1.1-6.4
	c1.8-0.9,2.7-0.3,5.3,4.6l46.5,92.2l0,0c2.1,5.7,4.8,11.6,2.1,13.3c-2,1.1-4.2,1.6-6.5,1.5L4.1,165.6z"/>
</svg>