<svg xmlns="http://www.w3.org/2000/svg" viewBox="0 0 200 200">
    <style>
        path { fill: #282829; }
        @media (prefers-color-scheme: dark) {
            path { fill: #F8F8F3; }
        }
    </style>
    <path d="M184.05,40.41H16a3.26,3.26,0,0,0-3.26,3.25V156.33A3.28,3.28,0,0,0,16,159.59h168.1a3.26,3.26,0,0,0,3.26-3.25h0V43.66a3.25,3.25,0,0,0-3.25-3.25Zm-68.52,61.33c-3.78-.1-7.47-.46-9.32-1.63-2.39-1.52-1.53-6.18.71-11.33l-.11.21,19-38.07a3.38,3.38,0,0,1,1.41-.87l21.13,42-1.19-2.34c2.14,4.82,2.56,9,.16,10.46-1.81,1.15-5.43,1.48-9.16,1.58Zm.3-59.44c2.4.09,4.48.38,5.76,1.19,2.4,1.51,2,6.34-.31,11.58l-42.7,85.42h0s-3.39,6.56-6.37,6.56c-2.35,0-4.5-3.3-5.55-5.22l-43.78-87,.22.43c-2-4.54-3.05-9.74-.66-11.26,2.06-1.31,6.39-1.6,10.61-1.66ZM84.18,157.69c-2.4-.09-4.49-.37-5.76-1.18-2.4-1.52-.7-8.91,1.35-13.44h0l13.35-26.72-.16.38c5.38-10.67,8.49-10.45,11.07-11.46,2.19-.87,7.11-1.25,11.46-1.35h23.22c4.35.1,9.26.48,11.45,1.35s4.44.83,8,6.18l16.7,33.17c2,5.19,2.95,9.89.56,11.4-1.83,1.16-5.46,1.53-9.2,1.63Zm101.18-114v90.69c0,4.86-.13,10.8-.93,11.2-1.76.86-2.07-1-5-5.94l.06.11L137.14,55.58v.08c-2-4.93-3.21-10.18-.83-11.7,2.09-1.32,6.49-1.6,10.75-1.66h36.86a1.35,1.35,0,0,1,1.44,1.26A.34.34,0,0,1,185.36,43.66Zm-169.45,114a1.37,1.37,0,0,1-1.36-1.36V72.08h0V65.26c0-2.86.23-5.22.94-5.59,1.58-.8,2.39-.27,4.64,4l40.79,81h0c1.87,5,4.24,10.2,1.85,11.71a10.93,10.93,0,0,1-5.67,1.29Z" />
</svg>