<?xml version="1.0" standalone="no"?>
<!DOCTYPE svg PUBLIC "-//W3C//DTD SVG 20010904//EN"
 "http://www.w3.org/TR/2001/REC-SVG-20010904/DTD/svg10.dtd">
<svg version="1.0" xmlns="http://www.w3.org/2000/svg"
 width="700.000000pt" height="700.000000pt" viewBox="0 0 700.000000 700.000000"
 preserveAspectRatio="xMidYMid meet">
<metadata>
Created by potrace 1.11, written by Peter Selinger 2001-2013
</metadata>
<g transform="translate(0.000000,700.000000) scale(0.100000,-0.100000)"
fill="#000000" stroke="none">
<path d="M533 5582 c-29 -4 -79 -54 -84 -84 -3 -13 -4 -917 -4 -2010 1 -2153
-3 -2017 54 -2055 25 -17 196 -18 2990 -18 1972 0 2974 3 2994 10 16 5 40 23
51 38 l21 28 1 2004 c1 1445 -2 2011 -10 2026 -6 12 -24 32 -39 43 l-28 21
-2962 0 c-1629 0 -2972 -1 -2984 -3z m3651 -75 c51 -14 86 -37 107 -70 29 -48
24 -159 -12 -268 -30 -93 -1504 -3051 -1574 -3159 -78 -122 -147 -171 -210
-150 -36 12 -98 74 -138 136 -13 22 -282 552 -597 1179 -315 627 -659 1311
-765 1520 -197 390 -228 462 -249 575 -30 161 25 219 224 237 30 3 56 6 58 8
7 7 3130 -1 3156 -8z m2288 -4 c15 -16 16 -172 16 -1718 -1 -935 -5 -1736 -10
-1779 -9 -84 -19 -106 -49 -106 -38 0 -64 46 -380 675 -133 264 -349 692 -479
950 -629 1246 -790 1573 -815 1661 -45 154 -33 256 32 283 50 20 97 32 153 37
30 4 57 8 58 9 2 2 331 4 731 5 686 1 728 0 743 -17z m-1660 -970 c215 -427
364 -737 377 -780 42 -141 25 -229 -52 -267 -83 -40 -155 -44 -727 -42 -447 2
-555 5 -600 17 -74 20 -117 47 -131 81 -17 42 -5 159 25 250 35 103 692 1418
719 1440 12 9 24 15 28 13 3 -3 166 -323 361 -712z m-4202 377 c31 -16 73 -96
425 -795 186 -368 507 -1007 715 -1420 208 -412 391 -781 405 -820 93 -241 98
-316 22 -357 -65 -34 -107 -36 -877 -36 -662 0 -762 2 -775 15 -14 13 -15 215
-13 1698 3 1639 3 1683 22 1704 21 23 47 27 76 11z m4375 -1554 c153 -11 233
-25 320 -58 70 -27 89 -40 150 -103 69 -72 72 -77 377 -686 169 -338 314 -636
322 -664 25 -82 38 -177 31 -221 -11 -78 -75 -115 -225 -132 -102 -12 -3039
-13 -3114 -1 -69 11 -111 31 -127 60 -13 25 -16 124 -6 188 18 116 71 235 322
740 145 289 286 561 315 603 96 145 179 206 325 242 85 21 114 25 250 32 66 4
121 7 122 8 6 5 858 -2 938 -8z"/>
</g>
</svg>
