<?xml version="1.0" standalone="no"?>
<!DOCTYPE svg PUBLIC "-//W3C//DTD SVG 20010904//EN"
 "http://www.w3.org/TR/2001/REC-SVG-20010904/DTD/svg10.dtd">
<svg version="1.0" xmlns="http://www.w3.org/2000/svg"
 width="700.000000pt" height="700.000000pt" viewBox="0 0 700.000000 700.000000"
 preserveAspectRatio="xMidYMid meet">
<metadata>
Created by potrace 1.11, written by Peter Selinger 2001-2013
</metadata>
<g transform="translate(0.000000,700.000000) scale(0.100000,-0.100000)"
fill="#000000" stroke="none">
<path d="M115 5872 c-35 -8 -83 -52 -91 -85 -5 -23 -9 -4225 -5 -4534 1 -52
45 -108 93 -118 17 -4 1547 -7 3399 -7 l3368 -1 34 22 c19 12 41 36 48 54 12
27 14 411 14 2306 0 2127 -1 2276 -17 2302 -9 15 -29 36 -45 46 -26 17 -166
18 -3403 18 -1856 1 -3384 -1 -3395 -3z m4095 -76 c153 -15 212 -75 209 -212
-4 -148 3 -134 -929 -1999 -920 -1842 -930 -1861 -1027 -1929 -79 -55 -151
-30 -236 84 -28 37 -178 324 -388 743 -188 375 -582 1160 -876 1744 -576 1148
-605 1211 -607 1353 -1 93 14 131 63 158 95 54 106 54 1051 59 481 2 898 4
925 6 124 5 1748 -1 1815 -7z m2657 0 c13 -4 25 -17 28 -29 10 -45 -2 -3981
-13 -4026 -12 -51 -34 -73 -64 -62 -43 16 -23 -24 -1235 2391 -374 744 -631
1267 -646 1315 -51 159 -59 265 -22 321 32 49 137 79 319 90 55 4 102 7 103 8
7 5 1513 -2 1530 -8z m-1885 -1099 c219 -435 407 -815 418 -844 25 -68 46
-160 44 -198 0 -16 -2 -45 -2 -62 -2 -38 -59 -107 -95 -116 -12 -3 -40 -10
-62 -16 -22 -6 -69 -13 -105 -18 -86 -9 -1122 -9 -1224 0 -92 9 -191 40 -223
69 -53 50 -55 161 -4 318 37 114 790 1633 818 1649 10 6 23 10 28 11 6 0 189
-357 407 -793z m-4728 359 c18 -28 139 -260 268 -516 1178 -2331 1448 -2869
1448 -2888 0 -10 4 -22 9 -27 19 -22 73 -219 74 -270 1 -63 -22 -96 -82 -117
-41 -14 -35 -12 -83 -22 -20 -4 -424 -9 -899 -10 -820 -2 -864 -1 -881 16 -18
18 -18 99 -16 1926 3 1790 4 1909 20 1939 33 60 90 47 142 -31z m5011 -1720
c141 -17 193 -29 276 -60 102 -38 157 -78 221 -158 70 -87 730 -1411 764
-1533 32 -113 37 -225 11 -273 -29 -53 -113 -83 -282 -99 -38 -4 -839 -7
-1780 -7 l-1710 0 -72 23 c-69 22 -73 25 -89 67 -31 81 -3 268 65 441 39 100
602 1212 651 1288 62 94 140 178 196 211 51 30 205 81 265 88 24 3 89 8 144
12 55 4 101 7 102 8 8 6 1188 -2 1238 -8z"/>
</g>
</svg>
